<?xml version="1.0" encoding="utf-8"?>
<svg xmlns="http://www.w3.org/2000/svg" xmlns:xlink="http://www.w3.org/1999/xlink" style="margin: auto; background: none; display: block; shape-rendering: auto;" width="247px" height="247px" viewBox="0 0 100 100" preserveAspectRatio="xMidYMid">
<g transform="rotate(0 50 50)">
  <rect x="48.5" y="27" rx="0" ry="0" width="3" height="14" fill="#000000">
    <animate attributeName="opacity" values="1;0" keyTimes="0;1" dur="0.5434782608695652s" begin="-0.49407114624505927s" repeatCount="indefinite"></animate>
  </rect>
</g><g transform="rotate(32.72727272727273 50 50)">
  <rect x="48.5" y="27" rx="0" ry="0" width="3" height="14" fill="#000000">
    <animate attributeName="opacity" values="1;0" keyTimes="0;1" dur="0.5434782608695652s" begin="-0.4446640316205533s" repeatCount="indefinite"></animate>
  </rect>
</g><g transform="rotate(65.45454545454545 50 50)">
  <rect x="48.5" y="27" rx="0" ry="0" width="3" height="14" fill="#000000">
    <animate attributeName="opacity" values="1;0" keyTimes="0;1" dur="0.5434782608695652s" begin="-0.39525691699604737s" repeatCount="indefinite"></animate>
  </rect>
</g><g transform="rotate(98.18181818181819 50 50)">
  <rect x="48.5" y="27" rx="0" ry="0" width="3" height="14" fill="#000000">
    <animate attributeName="opacity" values="1;0" keyTimes="0;1" dur="0.5434782608695652s" begin="-0.34584980237154145s" repeatCount="indefinite"></animate>
  </rect>
</g><g transform="rotate(130.9090909090909 50 50)">
  <rect x="48.5" y="27" rx="0" ry="0" width="3" height="14" fill="#000000">
    <animate attributeName="opacity" values="1;0" keyTimes="0;1" dur="0.5434782608695652s" begin="-0.2964426877470355s" repeatCount="indefinite"></animate>
  </rect>
</g><g transform="rotate(163.63636363636363 50 50)">
  <rect x="48.5" y="27" rx="0" ry="0" width="3" height="14" fill="#000000">
    <animate attributeName="opacity" values="1;0" keyTimes="0;1" dur="0.5434782608695652s" begin="-0.24703557312252963s" repeatCount="indefinite"></animate>
  </rect>
</g><g transform="rotate(196.36363636363637 50 50)">
  <rect x="48.5" y="27" rx="0" ry="0" width="3" height="14" fill="#000000">
    <animate attributeName="opacity" values="1;0" keyTimes="0;1" dur="0.5434782608695652s" begin="-0.19762845849802368s" repeatCount="indefinite"></animate>
  </rect>
</g><g transform="rotate(229.0909090909091 50 50)">
  <rect x="48.5" y="27" rx="0" ry="0" width="3" height="14" fill="#000000">
    <animate attributeName="opacity" values="1;0" keyTimes="0;1" dur="0.5434782608695652s" begin="-0.14822134387351776s" repeatCount="indefinite"></animate>
  </rect>
</g><g transform="rotate(261.8181818181818 50 50)">
  <rect x="48.5" y="27" rx="0" ry="0" width="3" height="14" fill="#000000">
    <animate attributeName="opacity" values="1;0" keyTimes="0;1" dur="0.5434782608695652s" begin="-0.09881422924901184s" repeatCount="indefinite"></animate>
  </rect>
</g><g transform="rotate(294.54545454545456 50 50)">
  <rect x="48.5" y="27" rx="0" ry="0" width="3" height="14" fill="#000000">
    <animate attributeName="opacity" values="1;0" keyTimes="0;1" dur="0.5434782608695652s" begin="-0.04940711462450592s" repeatCount="indefinite"></animate>
  </rect>
</g><g transform="rotate(327.27272727272725 50 50)">
  <rect x="48.5" y="27" rx="0" ry="0" width="3" height="14" fill="#000000">
    <animate attributeName="opacity" values="1;0" keyTimes="0;1" dur="0.5434782608695652s" begin="0s" repeatCount="indefinite"></animate>
  </rect>
</g>
<!-- [ldio] generated by https://loading.io/ --></svg>